# xmcd
#
# Track frame offsets:
#	150
#	19231
#	36106
#	53767
#	69020
#	88373
#	102025
#	114318
#	132384
#	155328
#	176997
#	195489
#
# Disc length: 2928 seconds
#
# Revision: 1
# Processed by: cddbd v1.5.2PL0 Copyright (c) Steve Scherf et al.
# Submitted via: audiograbber 1.83.01
#
DISCID=9a0b6e0c
DTITLE=The Chapin Sisters - Todays Not Yesterday
DYEAR=2016
DGENRE=countrey
TTITLE0=Autumn
TTITLE1=Angeleno
TTITLE2=Chasing the Rain
TTITLE3=Getaway
TTITLE4=Child
TTITLE5=Love Come Back
TTITLE6=Trees Fall Around
TTITLE7=Sleep In
TTITLE8=World Is All
TTITLE9=Waiting
TTITLE10=There Will Be A Time For Us
TTITLE11=Wee Will Not Stop
EXTD=
EXTT0=
EXTT1=
EXTT2=
EXTT3=
EXTT4=
EXTT5=
EXTT6=
EXTT7=
EXTT8=
EXTT9=
EXTT10=
EXTT11=
PLAYORDER=
